<svg width="140" height="140" viewBox="0 0 140 140" fill="none" xmlns="http://www.w3.org/2000/svg">
<rect x="1" y="1" width="138" height="138" rx="69" fill="#EABA42" stroke="#EABA42" stroke-width="2"/>
<g filter="url(#filter0_d_87_864)">
<path d="M60.437 33.6133C60.3587 33.6719 60.3 35.7422 60.3 38.2031V42.6562H56.1918H52.0835V47.2461V51.8359L47.9361 51.875L43.7692 51.9336L43.7105 55.3906L43.6714 58.8672H45.0408H46.4102V56.8164V54.7656H53.3551H60.3V56.8164V58.8672H61.6695H63.0389V56.8164V54.7656H69.9838H76.9287V56.8164V58.8672H78.2981H79.6675V56.8164V54.7656H86.6124H93.5573V56.8164V58.8672H94.9267H96.2962V55.3516V51.8359H92.1879H88.0797L88.0405 47.2852L87.9818 42.7539L83.8345 42.6953L79.6675 42.6562V38.0664V33.4766H70.1207C64.8582 33.4766 60.4957 33.5352 60.437 33.6133ZM76.9287 39.5312V42.6562H69.9838H63.0389V39.5312V36.4062H69.9838H76.9287V39.5312ZM68.7122 48.7109V51.8359H61.7673H54.8224V48.7109V45.5859H61.7673H68.7122V48.7109ZM85.3408 48.7109V51.8359H78.3959H71.451V48.7109V45.5859H78.3959H85.3408V48.7109Z" fill="#1A1A1A"/>
<path d="M65.3865 40.1172V41.4844H70.0816H74.7768V40.1172V38.75H70.0816H65.3865V40.1172Z" fill="#1A1A1A"/>
<path d="M73.603 48.125V49.4922H78.2982H82.9933V48.125V46.7578H78.2982H73.603V48.125Z" fill="#1A1A1A"/>
<path d="M48.7578 57.3047V58.6719H53.453H58.1481V57.3047V55.9375H53.453H48.7578V57.3047Z" fill="#1A1A1A"/>
<path d="M54.3137 61.2695C54.255 61.4258 54.2355 62.0703 54.2746 62.6953L54.3333 63.8477L75.7549 63.9453C93.4595 64.0235 97.2939 64.082 97.8416 64.3164C102.576 66.2695 104.865 70.8985 103.398 75.5274C102.459 78.4961 99.7001 80.9766 96.707 81.5235C96.0418 81.6406 87.708 81.7188 74.229 81.7188H52.8269L53.5312 80.9375C55.5071 78.75 56.5635 76.3281 56.72 73.5742C56.9352 70.0586 55.8396 67.1094 53.3943 64.6485C51.0467 62.3047 48.4057 61.211 45.0995 61.211C41.7346 61.211 39.3284 62.2266 36.9221 64.6289C34.5354 67.0117 33.4986 69.4727 33.4986 72.7344C33.4986 75.9766 34.5941 78.6914 36.7656 80.918C37.8611 82.0117 37.9394 82.1485 37.4503 82.0313C34.8289 81.4649 32.0509 81.8164 29.5859 83.0078C27.6296 83.9649 25.2625 86.3086 24.343 88.2227C22.1715 92.7149 22.9345 97.793 26.3385 101.387C31.3662 106.719 39.8566 106.211 44.1996 100.293C45.2364 98.9063 45.0017 98.8672 46.3124 100.684C47.5253 102.363 49.9511 103.965 52.3965 104.688C54.1377 105.195 57.2678 105.156 58.9306 104.59C60.8869 103.906 62.2368 103.066 63.7431 101.543C68.184 97.0899 68.2622 90.0391 63.9583 85.4688L62.9802 84.4531H84.1866C97.8612 84.4531 105.843 84.5313 106.665 84.668C109.169 85.0586 111.262 86.4063 112.71 88.5547C115.37 92.5586 114.275 98.0469 110.245 100.781C107.858 102.422 109.619 102.305 85.7908 102.363L64.6039 102.441V103.789V105.156H85.3995C108.621 105.156 107.643 105.195 110.558 103.77C113.433 102.363 115.585 99.7266 116.564 96.4649C117.111 94.6094 117.033 91.7969 116.368 89.8242C115.116 86.1524 112.475 83.5156 108.817 82.3047C107.897 81.9922 106.86 81.8555 105.06 81.7774L102.556 81.6602L103.671 80.4688C104.963 79.0625 105.96 77.1094 106.391 75.0781C107.467 70.0391 104.728 64.5313 100.072 62.3438C97.3526 61.0547 98.8589 61.1328 75.5984 61.0742C57.5416 61.0156 54.4115 61.0352 54.3137 61.2695ZM47.7601 64.3164C54.1377 66.2891 56.1331 74.3555 51.3988 79.082C47.4079 83.0664 40.8347 82.4024 37.7046 77.6953C35.9244 75.0195 35.7483 71.5039 37.2547 68.5547C37.7438 67.6172 39.3871 65.8399 40.3065 65.2735C42.4389 63.9453 45.3929 63.5742 47.7601 64.3164ZM45.2951 84.3945L47.7796 84.4922L47.0167 85.332C46.6059 85.7813 46.019 86.5235 45.7255 86.9727C45.4321 87.4024 45.1582 87.7735 45.1386 87.7735C45.0995 87.7735 44.6691 87.207 44.18 86.5235C43.691 85.8399 42.9671 85 42.5563 84.668C41.9107 84.1211 41.8716 84.043 42.302 84.1602C42.5759 84.2383 43.9061 84.336 45.2951 84.3945ZM37.7242 85.0391C43.8475 87.1485 45.706 95.0195 41.1673 99.6094C38.3893 102.422 34.3789 103.105 30.8576 101.367C25.3799 98.6524 24.167 91.4649 28.4904 87.1875C30.9945 84.707 34.418 83.9063 37.7242 85.0391ZM56.7395 84.6485C61.6108 85.3516 65.1126 90.1172 64.2322 94.9024C62.9215 102.09 54.1377 104.805 49.0512 99.5703C47.3688 97.8516 46.5667 95.8399 46.5863 93.3789C46.5863 91.4844 47.0362 90.0391 48.0927 88.4375C49.4816 86.3477 51.6727 85 54.4311 84.5899C55.2723 84.4531 55.4679 84.4531 56.7395 84.6485Z" fill="#1A1A1A"/>
<path d="M43.2605 65.9766C42.0476 66.3086 40.7369 67.0898 39.8956 68.0273C37.3524 70.8398 37.4502 75.0195 40.1108 77.7539C41.0499 78.7305 42.9866 79.707 44.1604 79.8047L44.9429 79.8633L45.0016 78.5547L45.0603 77.2461L44.1604 77.0117C42.3019 76.543 40.7369 74.707 40.7369 72.9492C40.7369 71.0156 42.1845 69.1016 44.0235 68.6328L45.0407 68.3594V67.0312C45.0407 65.5273 45.0016 65.5078 43.2605 65.9766Z" fill="#1A1A1A"/>
<path d="M32.7356 86.6211C31.7183 86.9336 30.1337 88.0078 29.3316 88.9453C28.5882 89.8242 27.9622 91.2305 27.7665 92.5L27.6492 93.2422H28.999H30.3684L30.5836 92.3828C30.8575 91.2891 31.9531 89.9805 32.9899 89.5117C35.4744 88.3789 38.6241 90.0195 39.074 92.6758L39.211 93.4375H40.5804H41.9498L41.8129 92.5C41.4999 90.2539 39.8957 88.0469 37.8024 87.0312C36.9221 86.6016 36.4134 86.5039 35.0636 86.4648C34.1441 86.4453 33.1073 86.5039 32.7356 86.6211Z" fill="#1A1A1A"/>
<path d="M55.4092 87.7539V89.082L56.1526 89.1992C56.5438 89.2578 57.0134 89.3555 57.1699 89.4141C57.3851 89.4922 57.6394 89.1797 58.1089 88.3399C58.461 87.6758 58.7349 87.1094 58.6958 87.0899C58.4806 86.875 56.6417 86.4063 56.0939 86.4063H55.4092V87.7539Z" fill="#1A1A1A"/>
<path d="M48.3665 93.9648C48.386 96.1328 50.1858 98.7109 52.4551 99.8438C53.4137 100.312 53.7854 100.371 55.4092 100.371C57.0134 100.371 57.4242 100.293 58.3828 99.8438C60.4565 98.8672 62.0998 96.7578 62.4323 94.6094L62.5888 93.6328H61.1607C59.7913 93.6328 59.7131 93.6523 59.7131 94.0625C59.6935 94.8047 59.0284 96.0352 58.285 96.6992C56.1917 98.5352 52.866 97.8711 51.6139 95.3516C51.34 94.8047 51.1053 94.1406 51.1053 93.8867C51.1053 93.457 51.027 93.4375 49.7359 93.4375C48.3665 93.4375 48.3665 93.4375 48.3665 93.9648Z" fill="#1A1A1A"/>
<path d="M63.4302 67.0703V68.4375H64.7996H66.169V67.0703V65.7031H64.7996H63.4302V67.0703Z" fill="#1A1A1A"/>
<path d="M68.1252 67.0703V68.4375H81.9955H95.8657L96.883 68.9648C98.0959 69.6094 99.0154 70.8008 99.1719 71.9336L99.2893 72.7344H100.659H102.028L101.93 71.7969C101.754 69.9219 100.444 67.9102 98.6633 66.7773C96.9221 65.7031 97.0004 65.7031 81.9759 65.7031H68.1252V67.0703Z" fill="#1A1A1A"/>
<path d="M69.2991 87.7734V89.1602L70.6294 89.1016L71.9401 89.043L71.9988 87.7148L72.0575 86.4062H70.6685H69.2991V87.7734Z" fill="#1A1A1A"/>
<path d="M78.3373 87.7148L78.3959 89.043L92.5792 89.1406L106.762 89.2383L107.506 89.707C108.523 90.332 109.364 91.5234 109.521 92.5781L109.638 93.4375H111.008H112.397L112.299 92.5C112.084 90.332 110.401 88.0273 108.269 87.0312L107.154 86.5039L92.7161 86.4453L78.2786 86.4062L78.3373 87.7148Z" fill="#1A1A1A"/>
</g>
<defs>
<filter id="filter0_d_87_864" x="16" y="20" width="108.163" height="108" filterUnits="userSpaceOnUse" color-interpolation-filters="sRGB">
<feFlood flood-opacity="0" result="BackgroundImageFix"/>
<feColorMatrix in="SourceAlpha" type="matrix" values="0 0 0 0 0 0 0 0 0 0 0 0 0 0 0 0 0 0 127 0" result="hardAlpha"/>
<feOffset dy="4"/>
<feGaussianBlur stdDeviation="2"/>
<feComposite in2="hardAlpha" operator="out"/>
<feColorMatrix type="matrix" values="0 0 0 0 0 0 0 0 0 0 0 0 0 0 0 0 0 0 0.25 0"/>
<feBlend mode="normal" in2="BackgroundImageFix" result="effect1_dropShadow_87_864"/>
<feBlend mode="normal" in="SourceGraphic" in2="effect1_dropShadow_87_864" result="shape"/>
</filter>
</defs>
</svg>
