<svg width="140" height="140" viewBox="0 0 140 140" fill="none" xmlns="http://www.w3.org/2000/svg">
<rect x="1" y="1" width="138" height="138" rx="69" fill="#EABA42" stroke="#EABA42" stroke-width="2"/>
<g clip-path="url(#clip0_87_889)">
<path opacity="0.926" fill-rule="evenodd" clip-rule="evenodd" d="M70.2637 24.9121C70.7325 24.9121 71.2012 24.9121 71.67 24.9121C72.092 25.1311 72.3557 25.4827 72.461 25.9668C72.5782 30.9473 72.5782 35.9277 72.461 40.9082C71.9266 41.9397 71.1356 42.2034 70.0879 41.6992C69.8156 41.4858 69.6107 41.2221 69.4727 40.9082C69.3555 35.9277 69.3555 30.9473 69.4727 25.9668C69.578 25.4827 69.8417 25.1311 70.2637 24.9121Z" fill="#1A1A1A"/>
<path opacity="0.919" fill-rule="evenodd" clip-rule="evenodd" d="M59.1895 32.2949C59.9522 32.18 60.6262 32.3558 61.211 32.8223C61.2695 32.9981 61.3282 33.1739 61.3868 33.3496C61.504 35.8692 61.504 38.3887 61.3868 40.9082C60.8524 41.9397 60.0614 42.2034 59.0137 41.6992C58.7414 41.4858 58.5365 41.2222 58.3985 40.9082C58.2812 38.3887 58.2812 35.8692 58.3985 33.3496C58.5038 32.8655 58.7674 32.5139 59.1895 32.2949Z" fill="#1A1A1A"/>
<path opacity="0.918" fill-rule="evenodd" clip-rule="evenodd" d="M81.3379 32.2949C82.1006 32.18 82.7746 32.3558 83.3594 32.8223C83.418 32.9981 83.4767 33.1739 83.5352 33.3496C83.6524 35.8692 83.6524 38.3887 83.5352 40.9082C82.9265 41.9916 82.0767 42.226 80.9864 41.6114C80.7958 41.4066 80.6494 41.1722 80.5469 40.9082C80.4297 38.3301 80.4297 35.752 80.5469 33.1739C80.7271 32.7894 80.9908 32.4965 81.3379 32.2949Z" fill="#1A1A1A"/>
<path opacity="0.932" fill-rule="evenodd" clip-rule="evenodd" d="M69.7363 44.0056C77.5206 43.852 83.7608 46.8403 88.457 52.9705C92.6534 59.261 93.5323 65.9994 91.0937 73.1853C87.2759 81.9672 80.5669 86.596 70.9668 87.072C61.7558 86.6734 55.164 82.3376 51.1914 74.0642C48.0913 65.8211 49.2632 58.2625 54.707 51.3884C58.7408 46.9292 63.7506 44.4683 69.7363 44.0056ZM69.3847 47.1697C77.126 46.9524 83.0146 50.1165 87.0508 56.6619C90.8714 64.7612 89.7875 72.1148 83.7988 78.7224C77.5412 84.2203 70.5685 85.3337 62.8808 82.0623C54.7824 77.4357 51.5305 70.4924 53.125 61.2322C55.5947 53.1065 61.0147 48.4191 69.3847 47.1697Z" fill="#1A1A1A"/>
<path d="M64.0498 76V55H71.9098C74.5698 55 76.6598 55.6 78.1798 56.8C79.7198 58 80.4898 59.72 80.4898 61.96C80.4898 64.22 79.7198 65.95 78.1798 67.15C76.6598 68.35 74.5698 68.95 71.9098 68.95H65.2798L66.2698 67.9V76H64.0498ZM66.2698 68.08L65.2798 67.06H71.9398C73.9798 67.06 75.5398 66.62 76.6198 65.74C77.7198 64.86 78.2698 63.61 78.2698 61.99C78.2698 60.37 77.7198 59.12 76.6198 58.24C75.5398 57.36 73.9798 56.92 71.9398 56.92H65.2798L66.2698 55.87V68.08ZM60.8998 72.1V70.78H73.0198V72.1H60.8998Z" fill="#1A1A1A"/>
<path opacity="0.94" fill-rule="evenodd" clip-rule="evenodd" d="M76.9434 114.912C75.1856 114.912 73.4277 114.912 71.6699 114.912C65.2326 113.185 58.7874 111.398 52.334 109.551C51.0264 109.174 49.7372 109.233 48.4668 109.727C47.3685 110.319 46.2845 110.935 45.2148 111.572C45.3827 112.693 45.0018 113.542 44.0723 114.121C41.0264 114.115 37.9795 114.056 34.9316 113.945C33.5657 113.934 32.218 113.816 30.8887 113.594C30.6775 113.435 30.531 113.23 30.4492 112.979C30.5 103.951 30.7344 94.9272 31.1523 85.9082C31.7396 85.1349 32.5307 84.8419 33.5254 85.0293C37.3347 85.1552 41.1433 85.3018 44.9512 85.4688C45.3119 85.6322 45.5755 85.8959 45.7422 86.2598C45.8007 87.2559 45.8594 88.2519 45.918 89.2481C50.4621 87.0213 55.179 86.5818 60.0684 87.9297C62.5363 88.9301 64.9973 89.926 67.4512 90.918C72.1952 91.1816 76.9413 91.416 81.6895 91.6211C84.5234 92.2597 86.6913 93.8124 88.1934 96.2793C92.4286 94.2202 96.7061 92.2573 101.025 90.3906C104.641 89.6661 107.483 90.8086 109.551 93.8184C110.014 94.7804 109.81 95.5714 108.936 96.1914C100.322 101.758 91.709 107.324 83.0957 112.891C81.1227 113.871 79.0721 114.544 76.9434 114.912ZM34.0527 88.1934C36.9221 88.3175 39.7932 88.376 42.666 88.3691C42.4479 95.9267 42.2722 103.485 42.1387 111.045C39.2694 110.916 36.3983 110.858 33.5254 110.869C33.7043 103.311 33.8801 95.752 34.0527 88.1934ZM52.8613 90.3027C54.9456 90.1871 56.9964 90.3922 59.0137 90.918C60.9299 91.6417 62.8047 92.4619 64.6387 93.3789C65.4956 93.6957 66.3745 93.93 67.2754 94.082C71.6664 94.3195 76.0609 94.4953 80.459 94.6094C83.3181 95.1246 85.193 96.7653 86.084 99.5313C80.6407 99.3785 75.1915 99.2613 69.7363 99.1797C68.9747 99.3838 68.6231 99.8819 68.6816 100.674C68.6231 101.466 68.9747 101.964 69.7363 102.168C75.8333 102.402 81.9271 102.578 88.0176 102.695C88.4915 102.574 88.8724 102.31 89.1602 101.904C89.1902 101.02 89.2781 100.141 89.4238 99.2676C93.2835 97.405 97.1507 95.5593 101.025 93.7305C102.745 93.0114 104.327 93.2165 105.771 94.3457C97.627 99.6485 89.4824 104.951 81.3379 110.254C77.9543 111.808 74.4387 112.218 70.791 111.484C64.4255 109.644 58.0386 107.886 51.6309 106.211C49.338 105.986 47.2578 106.542 45.3906 107.881C45.3648 102.896 45.5112 97.9157 45.8301 92.9395C48.0017 91.5589 50.3455 90.68 52.8613 90.3027Z" fill="#1A1A1A"/>
</g>
<defs>
<clipPath id="clip0_87_889">
<rect width="90" height="90" fill="white" transform="translate(25 25)"/>
</clipPath>
</defs>
</svg>
