<svg width="140" height="140" viewBox="0 0 140 140" fill="none" xmlns="http://www.w3.org/2000/svg">
<rect width="140" height="140" rx="70" fill="#EABA42"/>
<path opacity="0.947" fill-rule="evenodd" clip-rule="evenodd" d="M86 90.653C86 95.4665 86 100.28 86 105.094C85.6271 105.587 85.1115 105.859 84.4531 105.91C74.9333 107.93 65.4157 109.96 55.9004 112C44.2804 109.912 32.6573 107.84 21.0312 105.784C20.566 105.706 20.2222 105.476 20 105.094C20 100.28 20 95.4665 20 90.653C24.2731 87.2813 28.5485 83.8909 32.8262 80.4817C35.195 72.7223 37.6657 64.9997 40.2383 57.3139C40.5306 57.1191 40.8529 57.0144 41.2051 57C48.4615 59.2725 55.7017 61.5956 62.9258 63.9692C66.3369 69.2956 69.6669 74.6743 72.916 80.105C77.305 83.6077 81.6663 87.1237 86 90.653ZM43.8477 60.6416C49.2103 62.2921 54.5384 64.0292 59.832 65.8527C57.0598 69.4942 54.2669 73.1147 51.4531 76.7146C48.8481 71.3882 46.3129 66.0304 43.8477 60.6416ZM41.3984 62.0228C46.0895 71.8747 50.7516 81.7529 55.3848 91.6575C55.236 96.6875 54.9782 101.71 54.6113 106.726C52.377 103.712 50.1425 100.699 47.9082 97.6849C47.2216 97.0629 46.4911 97.021 45.7168 97.5594C45.3574 98.083 45.3145 98.6271 45.5879 99.1918C47.9727 102.352 50.3574 105.512 52.7422 108.672C42.7348 106.945 32.7231 105.208 22.707 103.461C22.6856 99.5682 22.707 95.6755 22.7715 91.7831C26.4209 89.0026 30.0517 86.1982 33.6641 83.3699C35.4399 85.7496 37.2446 88.1144 39.0781 90.4646C40.3084 90.9748 41.0389 90.5981 41.2695 89.3345C41.2168 89.043 41.1093 88.771 40.9473 88.5183C39.0962 86.0662 37.27 83.5966 35.4688 81.1096C37.4856 74.7572 39.4623 68.3949 41.3984 62.0228ZM61.8945 67.5479C62.018 67.6048 62.1255 67.6885 62.2168 67.7991C64.9344 72.2985 67.6844 76.7773 70.4668 81.2352C70.266 85.3412 69.9652 89.4432 69.5645 93.5411C65.495 97.9962 61.456 102.475 57.4473 106.977C57.7109 101.668 57.9256 96.3524 58.0918 91.0297C56.3251 87.2322 54.542 83.4442 52.7422 79.6655C55.8414 75.656 58.8922 71.6169 61.8945 67.5479ZM73.1094 83.8721C76.5099 86.4618 79.8829 89.0988 83.2285 91.7831C83.293 95.6755 83.3145 99.5682 83.293 103.461C75.468 105.14 67.6476 106.794 59.832 108.421C63.8446 103.884 67.9052 99.3848 72.0137 94.9224C72.1544 94.6029 72.2404 94.268 72.2715 93.9178C72.5508 90.5683 72.8302 87.2199 73.1094 83.8721Z" fill="#1A1A1A"/>
<path opacity="0.928" fill-rule="evenodd" clip-rule="evenodd" d="M79.2773 78C78.9519 78 78.6263 78 78.3008 78C75.5013 75.2656 72.7344 72.4987 70 69.6992C70 69.3737 70 69.0482 70 68.7227C76.0351 62.6062 82.1224 56.5353 88.2617 50.5098C89.5638 50.4772 90.8659 50.4446 92.168 50.4121C92.8042 49.7922 93.4227 49.1574 94.0234 48.5078C93.2406 47.7088 92.4756 46.8949 91.7285 46.0664C91.5169 44.9108 91.989 44.4388 93.1445 44.6504C93.6296 45.0377 94.0854 45.4608 94.5117 45.9199C95.0623 45.5826 95.5506 45.1432 95.9766 44.6016C95.521 44.0495 95.4722 43.4636 95.8301 42.8438C100.501 38.1726 105.173 33.5013 109.844 28.8301C110.26 28.476 110.716 28.1993 111.211 28C111.732 28 112.253 28 112.773 28C113.146 28.1309 113.504 28.31 113.848 28.5371C115.719 30.4089 117.591 32.2806 119.463 34.1523C119.69 34.4958 119.869 34.8538 120 35.2266C120 35.7474 120 36.2683 120 36.7891C119.809 37.2349 119.565 37.658 119.268 38.0586C114.496 42.8627 109.695 47.6316 104.863 52.3652C104.307 52.5059 103.819 52.392 103.398 52.0234C102.857 52.4494 102.417 52.9377 102.08 53.4883C102.539 53.9146 102.962 54.3704 103.35 54.8555C103.561 56.011 103.089 56.4831 101.934 56.2715C101.105 55.5244 100.291 54.7594 99.4922 53.9766C98.8751 54.5447 98.2729 55.1307 97.6855 55.7344C97.653 56.9062 97.6204 58.0781 97.5879 59.25C97.5749 59.5454 97.4772 59.8059 97.2949 60.0312C91.2993 66.0432 85.2935 72.0327 79.2773 78ZM79.7656 74.582C78.9369 71.198 76.821 69.0984 73.418 68.2832C78.6914 63.0098 83.9648 57.7363 89.2383 52.4629C90.5403 52.4304 91.8425 52.3978 93.1445 52.3652C93.9554 51.6521 94.7366 50.9034 95.4883 50.1191C95.5534 50.054 95.6185 50.054 95.6836 50.1191C96.45 50.8692 97.1987 51.6342 97.9297 52.4141C97.1469 53.2131 96.3818 54.027 95.6348 54.8555C95.6022 56.1575 95.5696 57.4597 95.5371 58.7617C90.2603 64.0223 85.0031 69.2957 79.7656 74.582ZM100.566 51.8281C99.0773 50.4858 97.6288 49.0861 96.2207 47.6289C96.1556 47.5638 96.1556 47.4987 96.2207 47.4336C96.6276 47.0267 97.0345 46.6198 97.4414 46.2129C97.5065 46.1478 97.5716 46.1478 97.6367 46.2129C99.0202 47.5964 100.404 48.9798 101.787 50.3633C101.852 50.4284 101.852 50.4935 101.787 50.5586C101.36 50.9689 100.953 51.3922 100.566 51.8281ZM104.473 49.875C102.299 47.8638 100.183 45.7805 98.125 43.625C102.6 39.1016 107.092 34.5932 111.602 30.0996C111.862 30.0345 112.122 30.0345 112.383 30.0996C114.219 31.8384 116.026 33.6124 117.803 35.4219C117.948 35.7346 117.98 36.0602 117.9 36.3984C113.405 40.8777 108.929 45.3699 104.473 49.875Z" fill="#1A1A1A"/>
</svg>
