<svg width="80" height="80" viewBox="0 0 80 80" fill="none" xmlns="http://www.w3.org/2000/svg">
<rect width="80" height="80" rx="40" fill="#EABA42"/>
<path d="M51.475 21.9381V18.1244H49V21.9381H31V18.1244H28.525V21.9381H16.375V61.8756H63.625V21.9381H51.475ZM18.85 24.4131H28.525V28.3056H31V24.4131H49V28.3056H51.475V24.4131H61.15V32.9238H18.85V24.4131ZM61.15 59.4006H18.85V33.8238H61.15V59.4006Z" fill="#1A1A1A"/>
<path d="M27.2876 43.0206C27.2876 43.5129 27.4832 43.9851 27.8313 44.3332C28.1794 44.6813 28.6515 44.8769 29.1438 44.8769C29.6362 44.8769 30.1083 44.6813 30.4564 44.3332C30.8045 43.9851 31.0001 43.5129 31.0001 43.0206C31.0001 42.5283 30.8045 42.0562 30.4564 41.7081C30.1083 41.3599 29.6362 41.1644 29.1438 41.1644C28.6515 41.1644 28.1794 41.3599 27.8313 41.7081C27.4832 42.0562 27.2876 42.5283 27.2876 43.0206Z" fill="#1A1A1A"/>
<path d="M38.0312 43.0206C38.0312 43.2644 38.0793 43.5058 38.1725 43.731C38.2658 43.9562 38.4026 44.1608 38.5749 44.3332C38.7473 44.5056 38.9519 44.6423 39.1771 44.7356C39.4024 44.8289 39.6437 44.8769 39.8875 44.8769C40.1313 44.8769 40.3726 44.8289 40.5979 44.7356C40.8231 44.6423 41.0277 44.5056 41.2001 44.3332C41.3724 44.1608 41.5092 43.9562 41.6025 43.731C41.6957 43.5058 41.7438 43.2644 41.7438 43.0206C41.7438 42.7769 41.6957 42.5355 41.6025 42.3103C41.5092 42.0851 41.3724 41.8804 41.2001 41.7081C41.0277 41.5357 40.8231 41.399 40.5979 41.3057C40.3726 41.2124 40.1313 41.1644 39.8875 41.1644C39.6437 41.1644 39.4024 41.2124 39.1771 41.3057C38.9519 41.399 38.7473 41.5357 38.5749 41.7081C38.4026 41.8804 38.2658 42.0851 38.1725 42.3103C38.0793 42.5355 38.0312 42.7769 38.0312 43.0206Z" fill="#1A1A1A"/>
<path d="M48.7808 43.0206C48.7808 43.5129 48.9763 43.9851 49.3244 44.3332C49.6726 44.6813 50.1447 44.8769 50.637 44.8769C51.1293 44.8769 51.6015 44.6813 51.9496 44.3332C52.2977 43.9851 52.4933 43.5129 52.4933 43.0206C52.4933 42.5283 52.2977 42.0562 51.9496 41.7081C51.6015 41.3599 51.1293 41.1644 50.637 41.1644C50.1447 41.1644 49.6726 41.3599 49.3244 41.7081C48.9763 42.0562 48.7808 42.5283 48.7808 43.0206Z" fill="#1A1A1A"/>
<path d="M27.2876 50.2038C27.2876 50.6961 27.4832 51.1682 27.8313 51.5163C28.1794 51.8645 28.6515 52.06 29.1438 52.06C29.6362 52.06 30.1083 51.8645 30.4564 51.5163C30.8045 51.1682 31.0001 50.6961 31.0001 50.2038C31.0001 49.7115 30.8045 49.2393 30.4564 48.8912C30.1083 48.5431 29.6362 48.3475 29.1438 48.3475C28.6515 48.3475 28.1794 48.5431 27.8313 48.8912C27.4832 49.2393 27.2876 49.7115 27.2876 50.2038Z" fill="#1A1A1A"/>
<path d="M38.0312 50.2038C38.0312 50.4476 38.0793 50.6889 38.1725 50.9141C38.2658 51.1394 38.4026 51.344 38.5749 51.5163C38.7473 51.6887 38.9519 51.8254 39.1771 51.9187C39.4024 52.012 39.6437 52.06 39.8875 52.06C40.1313 52.06 40.3726 52.012 40.5979 51.9187C40.8231 51.8254 41.0277 51.6887 41.2001 51.5163C41.3724 51.344 41.5092 51.1394 41.6025 50.9141C41.6957 50.6889 41.7438 50.4476 41.7438 50.2038C41.7438 49.96 41.6957 49.7186 41.6025 49.4934C41.5092 49.2682 41.3724 49.0636 41.2001 48.8912C41.0277 48.7188 40.8231 48.5821 40.5979 48.4888C40.3726 48.3955 40.1313 48.3475 39.8875 48.3475C39.6437 48.3475 39.4024 48.3955 39.1771 48.4888C38.9519 48.5821 38.7473 48.7188 38.5749 48.8912C38.4026 49.0636 38.2658 49.2682 38.1725 49.4934C38.0793 49.7186 38.0312 49.96 38.0312 50.2038Z" fill="#1A1A1A"/>
<path d="M48.7808 50.2038C48.7808 50.6961 48.9763 51.1682 49.3244 51.5163C49.6726 51.8645 50.1447 52.06 50.637 52.06C51.1293 52.06 51.6015 51.8645 51.9496 51.5163C52.2977 51.1682 52.4933 50.6961 52.4933 50.2038C52.4933 49.7115 52.2977 49.2393 51.9496 48.8912C51.6015 48.5431 51.1293 48.3475 50.637 48.3475C50.1447 48.3475 49.6726 48.5431 49.3244 48.8912C48.9763 49.2393 48.7808 49.7115 48.7808 50.2038Z" fill="#1A1A1A"/>
</svg>
