<svg width="120" height="60" viewBox="0 0 120 60" fill="none" xmlns="http://www.w3.org/2000/svg">
<g clip-path="url(#clip0_87_1198)">
<path fill-rule="evenodd" clip-rule="evenodd" d="M19.3459 -0.277771C20.6543 -0.277771 21.9627 -0.277771 23.2711 -0.277771C24.5818 1.8535 26.3574 3.52017 28.5982 4.72223C29.3954 6.12784 29.5823 7.60928 29.159 9.16667C28.1085 10.3938 26.8936 11.4123 25.5141 12.2222C26.2618 13.5185 26.2618 14.8148 25.5141 16.1111C28.663 16.9248 31.0929 15.9989 32.8038 13.3333C35.9719 12.357 38.1214 13.3755 39.2524 16.3889C44.3083 19.602 44.0279 22.3797 38.4113 24.7222C37.9023 24.0056 37.9958 23.2648 38.6917 22.5C40.477 21.9966 40.9443 20.9781 40.0936 19.4445C39.0588 18.8178 37.9373 18.54 36.7291 18.6111C37.0419 15.2473 35.8269 14.5066 33.0842 16.3889C32.8094 17.1073 32.716 17.8481 32.8038 18.6111C29.6263 18.6111 26.4487 18.6111 23.2711 18.6111C23.2711 15.463 23.2711 12.3148 23.2711 9.16667C26.6663 9.47662 27.414 8.2729 25.5141 5.55556C24.789 5.28333 24.0413 5.19074 23.2711 5.27778C23.4389 2.65903 22.3174 1.73311 19.9066 2.50001C19.3627 4.49748 18.0543 5.70117 15.9814 6.11112C15.4327 8.62034 16.5542 9.6389 19.3459 9.16667C19.3459 12.3148 19.3459 15.463 19.3459 18.6111C16.1683 18.6111 12.9908 18.6111 9.81318 18.6111C8.8335 14.399 7.33816 14.2138 5.3272 18.0556C4.42538 18.5102 3.4908 18.8806 2.52346 19.1667C1.89888 19.8461 1.80542 20.5868 2.24309 21.3889C3.21064 21.9245 4.23867 22.2948 5.3272 22.5C7.00726 26.7928 8.50261 26.7928 9.81318 22.5C12.9497 22.6703 16.0338 22.4851 19.0655 21.9445C19.3844 27.8927 19.3844 33.8186 19.0655 39.7222C20.973 34.3306 22.9356 28.9603 24.9534 23.6111C29.0486 23.0571 33.1608 22.8719 37.2898 23.0556C36.1683 27.1296 35.0468 31.2037 33.9253 35.2778C33.4184 35.6717 33.2315 36.2272 33.3646 36.9445C31.68 39.2387 32.4276 40.1646 35.6076 39.7222C34.1196 47.2729 35.8019 53.9396 40.6543 59.7222C38.2244 59.7222 35.7945 59.7222 33.3646 59.7222C30.5697 55.1284 29.2613 50.1284 29.4394 44.7222C28.131 44.7222 26.8225 44.7222 25.5141 44.7222C27.1026 38.9826 28.9717 33.3345 31.1216 27.7778C30.312 27.3442 29.5644 27.4367 28.8786 28.0556C25.1361 38.6242 21.3978 49.1797 17.6637 59.7222C12.6169 59.7222 7.57019 59.7222 2.52346 59.7222C5.00832 53.498 7.34477 47.2017 9.53281 40.8333C11.8128 40.298 14.1492 40.1128 16.5422 40.2778C16.5422 34.9074 16.5422 29.5371 16.5422 24.1667C15.0353 24.0755 13.5399 24.1681 12.0562 24.4445C9.06554 29.2593 6.07485 29.2593 3.08421 24.4445C1.8552 23.93 0.733704 23.2818 -0.280273 22.5C-0.280273 21.2037 -0.280273 19.9074 -0.280273 18.6111C1.88891 17.5386 3.57115 15.9645 4.76646 13.8889C7.98722 12.2496 10.4172 12.9903 12.0562 16.1111C13.5399 16.3875 15.0353 16.4801 16.5422 16.3889C16.7201 14.6823 16.5332 13.0156 15.9814 11.3889C13.3977 10.1327 12.5565 8.09567 13.458 5.27778C15.9014 3.87441 17.864 2.02256 19.3459 -0.277771ZM11.4954 42.5C13.7462 42.4081 15.9891 42.5007 18.2244 42.7778C16.193 47.4248 14.3238 52.147 12.6169 56.9445C10.5608 57.685 8.50479 57.685 6.4487 56.9445C8.35855 52.1934 10.0408 47.3786 11.4954 42.5Z" fill="white"/>
<path opacity="0.01" fill-rule="evenodd" clip-rule="evenodd" d="M5.32715 21.9445C6.07479 22.3148 6.07479 22.3148 5.32715 21.9445V21.9445Z" fill="white"/>
<path opacity="0.87" fill-rule="evenodd" clip-rule="evenodd" d="M33.3643 36.9444C33.8712 36.5506 34.0581 35.995 33.925 35.2778C36.0583 32.7022 38.4882 30.3873 41.2147 28.3333C47.0045 24.3387 53.3597 23.1349 60.2801 24.7222C59.9773 25.4156 59.6033 26.0638 59.1587 26.6667C59.9061 26.8518 60.6542 27.0371 61.4016 27.2222C60.0603 28.7378 58.9388 30.4044 58.0372 32.2222C52.7001 31.3446 47.7468 32.3631 43.1773 35.2778C42.897 35.0926 42.6166 34.9074 42.3362 34.7222C42.9781 33.9494 42.9781 33.2087 42.3362 32.5C39.8252 34.3391 37.3952 36.2836 35.0465 38.3333C34.5149 38.6016 33.9542 38.6942 33.3643 38.6111C33.3643 38.0556 33.3643 37.5 33.3643 36.9444Z" fill="white"/>
<path opacity="0.884" fill-rule="evenodd" clip-rule="evenodd" d="M51.869 59.7222C49.626 59.7222 47.383 59.7222 45.14 59.7222C37.4761 55.565 35.7004 49.6388 39.8129 41.9444C45.9889 35.9742 51.9702 36.1594 57.7569 42.5C61.3815 50.1884 59.4189 55.9294 51.869 59.7222ZM47.9438 43.0555C52.5825 43.6689 54.5451 46.2614 53.8316 50.8333C52.1949 53.9027 49.6715 54.9212 46.2615 53.8889C43.0617 51.9691 42.2206 49.2839 43.7382 45.8333C44.9549 44.5427 46.3568 43.6168 47.9438 43.0555Z" fill="white"/>
<path opacity="0.867" fill-rule="evenodd" clip-rule="evenodd" d="M77.1026 59.7222C75.2337 59.7222 73.3641 59.7222 71.4952 59.7222C73.3081 54.4273 75.177 49.1496 77.1026 43.8889C74.9555 43.468 73.0866 44.0236 71.4952 45.5556C66.8561 49.3171 63.6789 54.0393 61.9625 59.7222C60.0935 59.7222 58.224 59.7222 56.355 59.7222C59.6129 50.6647 65.4071 43.7202 73.7382 38.8889C77.0976 38.6114 80.4621 38.5188 83.8316 38.6111C81.9251 45.7586 79.6821 52.7956 77.1026 59.7222Z" fill="white"/>
<path opacity="0.847" fill-rule="evenodd" clip-rule="evenodd" d="M93.9253 59.7222C88.8786 59.7222 83.8319 59.7222 78.7852 59.7222C81.101 52.9309 83.2504 46.0791 85.2338 39.1667C90.1397 38.6201 95.0928 38.4349 100.094 38.6111C100.067 40.1738 99.6926 41.6553 98.9721 43.0556C95.7943 43.4259 92.6171 43.7963 89.4394 44.1667C89.2526 44.5371 89.0653 44.9074 88.8786 45.2778C91.1216 45.6482 93.3646 46.0185 95.6076 46.3889C95.0037 47.6274 94.6296 48.9238 94.4861 50.2778C92.0278 50.0969 89.5981 50.2821 87.1964 50.8333C86.6878 52.2537 86.127 53.6426 85.5141 55C88.6863 55.2774 91.864 55.3701 95.0468 55.2778C94.6728 56.7594 94.2994 58.2406 93.9253 59.7222Z" fill="white"/>
<path opacity="0.867" fill-rule="evenodd" clip-rule="evenodd" d="M119.72 43.6111C119.72 45.4629 119.72 47.3148 119.72 49.1667C115.841 54.3906 110.608 56.2422 104.019 54.7222C104.393 53.0556 104.766 51.3889 105.14 49.7222C107.391 49.8142 109.634 49.7216 111.869 49.4444C113.827 48.4329 114.481 46.8588 113.832 44.7222C113.326 44.0548 112.672 43.5918 111.869 43.3333C109.821 43.0563 107.766 42.9637 105.701 43.0556C104.247 48.6738 102.565 54.2293 100.654 59.7222C98.7854 59.7222 96.9158 59.7222 95.0469 59.7222C97.42 52.7608 99.8502 45.8163 102.337 38.8889C106.262 38.5185 110.187 38.5185 114.112 38.8889C116.433 39.9877 118.302 41.5618 119.72 43.6111Z" fill="white"/>
</g>
<defs>
<clipPath id="clip0_87_1198">
<rect width="120" height="60" fill="white"/>
</clipPath>
</defs>
</svg>
